<?xml version="1.0" encoding="UTF-8"?>
<svg id="Capa_2" data-name="Capa 2" xmlns="http://www.w3.org/2000/svg" viewBox="0 0 281.2 261.78">
  <defs>
    <style>
      .cls-1 {
        fill: #fff;
      }
    </style>
  </defs>
  <g id="Capa_1-2" data-name="Capa 1">
    <g>
      <g>
        <g>
          <path class="cls-1" d="M164.39,32.82h-18.51v-11.51h49.82v11.51h-18.51v47.96h-12.8v-47.96Z"/>
          <path class="cls-1" d="M204.21,55.07V21.31h12.71v33.24c0,9.17,5.88,15.67,14.19,15.67s14.1-6.49,14.1-15.67V21.31h12.8v33.76c0,15.67-11.16,26.75-26.9,26.75s-26.9-11.08-26.9-26.75Z"/>
        </g>
        <g>
          <path class="cls-1" d="M181.61,149.11l-13.58-19.3h-9.43v19.3h-12.72v-59.47h26.73c12.89,0,22.4,8.31,22.4,20.08,0,8.83-5.36,15.75-13.49,18.61l14.62,20.78h-14.53ZM158.6,118.12h12.63c6.31,0,10.64-3.29,10.64-8.4s-4.32-8.4-10.64-8.4h-12.63v16.8Z"/>
          <path class="cls-1" d="M204.73,89.64h12.8v59.47h-12.8v-59.47Z"/>
          <path class="cls-1" d="M225.5,140.28l7.35-8.74c5.63,4.85,12.02,7.79,19.55,7.79,6.4,0,9.68-2.94,9.68-6.66,0-4.24-3.46-5.54-12.54-7.62-12.54-2.86-21.45-6.41-21.45-17.92s8.99-18.52,21.97-18.52c9.69,0,17.21,3.03,23.27,8.22l-6.66,9.18c-5.27-4.24-11.24-6.58-16.95-6.58s-8.73,2.86-8.73,6.41c0,4.33,3.54,5.71,12.71,7.79,12.8,2.86,21.28,6.67,21.28,17.66s-8.56,18.87-23.09,18.87c-10.29,0-19.46-3.46-26.38-9.87Z"/>
        </g>
        <g>
          <path class="cls-1" d="M145.88,157.96h12.71l18.42,33.59,18.34-33.59h12.8v59.47h-12.8v-37.05l-18.34,33.59-18.42-33.59v37.05h-12.71v-59.47Z"/>
          <path class="cls-1" d="M218.06,187.66c0-16.71,14.53-30.73,31.56-30.73s31.57,14.02,31.57,30.73-14.36,30.82-31.57,30.82-31.56-14.11-31.56-30.82ZM268.13,187.66c0-10.3-8.47-19.13-18.51-19.13s-18.42,8.83-18.42,19.13,8.48,19.22,18.42,19.22,18.51-8.83,18.51-19.22Z"/>
        </g>
      </g>
      <g>
        <path class="cls-1" d="M153.02,261.78c-.51,0-1.01-.04-1.5-.12-2.82-.54-4.96-2.25-6.43-5.12-1.05-2.08-1.58-4.63-1.58-7.67,0-8.91,3.44-18.25,10.31-28,4.54-6.29,9.08-10.67,13.62-13.14,1.67-.77,3.12-1.16,4.35-1.16,1.74,0,3.04.77,3.89,2.31.33.69.5,1.46.5,2.31,0,2.18-1.15,5.06-3.46,8.63-.59.87-1.03,1.41-1.31,1.62-.18.1-.42.15-.73.15-.26-.08-.46-.24-.62-.5-.1-.13-.15-.27-.15-.42,0-.33.38-1.1,1.15-2.31,1.92-2.95,2.89-5.39,2.89-7.32,0-1.51-.75-2.27-2.23-2.27-1.8,0-4.06,1.07-6.79,3.22-2.73,2.14-5.44,4.99-8.14,8.53-7.34,9.76-11.01,19.13-11.01,28.12,0,1.52.05,2.68.15,3.51.62,3.42,2.09,5.71,4.43,6.9.82.33,1.71.5,2.66.5,1.39,0,2.91-.33,4.58-1,1.85-.8,3.98-2.11,6.41-3.93,2.43-1.82,4.8-3.89,7.14-6.2,4.72-4.75,7.94-9.21,9.66-13.37.33-.82.6-1.39.81-1.71.2-.32.47-.48.81-.48.69,0,1.04.3,1.04.89,0,.36-.26,1.15-.77,2.37-.51,1.22-1.05,2.31-1.62,3.25-4.41,7.22-10.48,13.44-18.2,18.68-3.75,2.49-7.03,3.74-9.85,3.74Z"/>
        <path class="cls-1" d="M192.2,253.15c-.38,0-.65-.08-.81-.23-.31-.33-.46-.99-.46-1.96,0-2.34.7-6.68,2.12-13.02,1.05-4.83,2.16-9.15,3.31-12.98l.27-1c-.08,0-.38.39-.92,1.16-1.59,2.08-3.05,3.63-4.39,4.66l-.85.65-.04,1.12c-.05,1.34-.47,2.82-1.25,4.45-.78,1.63-1.73,3-2.83,4.1-1.1,1.1-2.13,1.66-3.08,1.66-1.41-.05-2.21-.99-2.39-2.81,0-1.93.54-4.15,1.62-6.66,1.13-2.64,2.33-4.49,3.62-5.55.38-.28.76-.42,1.12-.42.28,0,.55.09.81.27.26.18.38.42.38.73l-.04.58c0,.23.15.41.46.54.15.08.31.12.46.12.13,0,.37-.15.73-.46,2.64-2.18,5.37-5.86,8.2-11.02.85-1.57,1.66-3.14,2.44-4.72.78-1.58,1.3-2.49,1.54-2.73.25-.24.51-.37.79-.37.13,0,.26.03.38.08.36.18.54.51.54,1-.05.28-.36,1.09-.92,2.43-3.72,8.65-6.76,19.18-9.12,31.59-.54,2.85-.81,4.85-.81,6.01,0,.41.04.71.12.91s.12.39.12.6c0,.57-.18.96-.54,1.19-.18.08-.37.12-.58.12ZM183.43,239.59c.33,0,.97-.51,1.92-1.54.79-.82,1.53-2.03,2.19-3.62.46-1.13.72-2,.77-2.62,0-.26-.19-.39-.58-.39-.77-.05-1.28-.39-1.54-1-.05-.23-.1-.35-.15-.35-.08,0-.38.5-.92,1.5-.69,1.41-1.23,2.76-1.6,4.04-.37,1.28-.56,2.27-.56,2.97s.15,1,.46,1Z"/>
        <path class="cls-1" d="M198.51,245.71c-.15,0-.32-.05-.5-.15-.31-.15-.51-.39-.62-.71-.1-.32-.15-.85-.15-1.6,0-1,.22-2.5.65-4.51.46-2.11,1.35-5.52,2.66-10.25,1.36-4.9,2.64-9.93,3.85-15.06.56-2.64.97-4.3,1.23-4.97.18-.54.47-.81.89-.81.67,0,1,.35,1,1.04,0,.31-.45,2.49-1.35,6.55-.57,2.57-1.25,5.29-2.04,8.17-2.1,7.76-3.29,12.17-3.54,13.25l.5-1c.87-1.93,1.67-3.45,2.39-4.58,1.85-2.82,3.78-4.24,5.81-4.24,1.49,0,2.42.92,2.81,2.77v.31c0,.62-.13,1.41-.38,2.39-.33,1.21-.83,2.35-1.5,3.43,3.75-.41,7.3-1.22,10.66-2.43.67-.23,1.13-.35,1.39-.35s.48.12.67.35c.19.23.29.45.29.65,0,.54-.63,1-1.89,1.39-5.39,1.57-9.6,2.44-12.62,2.62l-1,1.08c-1.87,1.88-3.54,2.81-5,2.81-.49,0-1-.14-1.54-.42l-.65,1.66c-.64,1.75-1.31,2.62-2,2.62ZM202.94,239.78c.54,0,1.4-.5,2.58-1.5-.62.1-1.22.31-1.81.62-.59.31-.89.57-.89.77,0,.08.04.12.12.12ZM202.98,236.7l.42-.04c.97-.28,1.74-.47,2.31-.58l2-.23.58-1c1.1-1.82,1.65-3.44,1.65-4.85,0-.67-.27-1-.81-1-1.08,0-2.36,1.05-3.85,3.16-1.03,1.59-1.77,3.02-2.23,4.28-.05.13-.08.22-.08.27Z"/>
        <path class="cls-1" d="M222.95,241.67h-.23c-.18,0-.38-.05-.62-.15-.92-.41-1.39-1.35-1.39-2.81,0-1.9.73-4.44,2.19-7.63.95-2.05,1.71-3.08,2.27-3.08.38,0,.68.21.89.62.05.13.08.26.08.39,0,.26-.28.92-.85,2-.82,1.64-1.44,3.17-1.85,4.56-.41,1.4-.62,2.43-.62,3.1,0,.21.05.49.15.85l.81-.81c.87-.82,2.8-3.29,5.77-7.4.82-1.16,1.46-2.03,1.91-2.62.45-.59.79-.98,1.02-1.17s.44-.29.62-.29c.13,0,.28.06.44.17.17.12.31.26.42.42.12.17.17.32.17.44,0,.21-.21.81-.62,1.81-.87,2.18-1.31,4.19-1.31,6.01,0,1.31.6,1.96,1.81,1.96,1.72,0,4.4-1.31,8.04-3.93,1.13-.82,1.78-1.23,1.96-1.23.67,0,1,.35,1,1.04,0,.15-.03.32-.08.5-.26.54-1.57,1.53-3.93,2.97-3.03,1.85-5.35,2.77-6.97,2.77-2.69,0-4.04-1.49-4.04-4.47v-1.43c-3.57,4.91-5.93,7.37-7.08,7.4ZM229.76,226.38l-.19-.04c-.46-.18-.7-.37-.71-.56-.01-.19-.02-.3-.02-.33,0-.36.21-.74.64-1.16.42-.41.97-.8,1.63-1.17.67-.37,1.14-.56,1.42-.56.59,0,.9.35.92,1.04-.05.39-.32.72-.81,1l-1.46,1.04c-.64.49-1.12.73-1.42.73Z"/>
        <path class="cls-1" d="M244.5,240.67c-.23,0-.45-.05-.65-.15-.41-.2-.65-.51-.73-.91-.08-.4-.12-.76-.12-1.1,0-1.77.42-4.24,1.27-7.4.46-1.72.9-2.85,1.31-3.39.28-.31.56-.46.85-.46.23,0,.45.1.65.29.2.19.31.4.31.64,0,.33-.12.75-.35,1.23-.57,1.44-1.05,3.24-1.46,5.39-.15.9-.23,1.53-.23,1.89,0,.13.01.19.04.19.1,0,.37-.32.81-.96,3.08-4.55,5.55-6.82,7.43-6.82,1.1,0,1.94.72,2.5,2.16.23.62.51,1.64.85,3.08.49,2.11,1.06,3.34,1.73,3.7.38.21.85.31,1.39.31,1.46,0,3.31-.62,5.54-1.85,1.23-.69,3.01-1.8,5.35-3.31.33-.23.6-.35.81-.35.38,0,.67.18.85.54.1.21.15.37.15.5,0,.44-.76,1.16-2.27,2.16-1.26.82-2.64,1.62-4.14,2.41-1.5.78-2.75,1.34-3.75,1.68-.9.28-1.73.42-2.5.42-2.13,0-3.66-1.1-4.58-3.31-.05-.2-.15-.56-.31-1.08-.15-.51-.3-1.07-.42-1.66-.46-1.77-.76-2.75-.89-2.93-.13-.18-.27-.27-.42-.27-1.03,0-3.12,2.27-6.27,6.82-.62.92-1.14,1.61-1.58,2.04-.33.33-.72.5-1.15.5Z"/>
      </g>
      <g>
        <path class="cls-1" d="M67.3,142.98c4.25-1.18,8.8-2.71,13.46-3.69,7.72-1.62,15.47-3.25,23.28-4.21,9.53-1.17,19.15-1.19,28.75-.51.81.06,1.63.08,2.45.08,1.18,0,1.55.57,1.15,1.75-.88,0-1.78.02-2.68,0-14.87-.43-27.74,4.32-38.39,14.85-5.23,5.17-10.42,10.39-15.77,15.44-7.57,7.14-15.7,13.52-25.35,17.71-7.93,3.44-16.19,4.76-24.8,4.16-1.41-.1-2.26-.56-2.76-2.01-1.36-3.98-2.88-7.91-4.43-12.12,2.63.42,4.87.85,7.13,1.13,8.14,1.01,16.21.7,24.08-1.79,8.67-2.74,14.01-9.66,14.31-18.77.13-3.85-.25-7.72-.42-12.02Z"/>
        <path class="cls-1" d="M136.56,160.26v33.28c-2.32.33-4.64.53-6.92,1-9.86,2.03-17.64,7.47-24.1,15-6.89,8.03-14.44,15.35-23.53,20.84-4.08,2.47-8.55,4.27-12.8,6.47-1.99,1.03-3.43.47-4.75-1.24,8.61-2.97,15.54-8.31,21.13-15.34,3.01-3.79,5.94-7.71,8.33-11.91,4.86-8.55,9.28-17.34,13.99-25.98,2.12-3.89,4.26-7.8,6.79-11.43,4.23-6.07,10.42-9.09,17.58-10.27,1.35-.22,2.72-.27,4.29-.42Z"/>
        <path class="cls-1" d="M44.17,216.01c2.87-.93,5.7-1.74,8.45-2.78,10.74-4.04,19.73-10.72,27.36-19.12,6.14-6.75,11.79-13.94,17.63-20.96,3.99-4.79,7.91-9.64,13.02-13.33,7.33-5.29,15.63-7.49,24.56-7.64.73-.01,1.47-.08,1.41,1.05-.06,1.07-.72.77-1.38.81-10.7.66-19.9,4.61-25.96,13.67-4.34,6.5-7.81,13.59-11.5,20.51-4.34,8.15-8.43,16.44-13.85,23.96-5.5,7.64-12.01,14.02-21.09,17.29-4.34,1.57-4.42,1.69-7.64-1.55-3.53-3.55-6.87-7.28-10.28-10.93-.27-.29-.48-.64-.73-.98Z"/>
        <path class="cls-1" d="M136.46,143v2.78c-2.1.13-4.17.23-6.24.4-12.19,1.03-22.48,6.1-30.66,15.14-4.76,5.25-9.17,10.83-13.62,16.35-6.46,8.01-13.16,15.77-21.5,21.92-6.95,5.12-14.62,8.67-23.11,10.4-1.12.23-1.88.1-2.52-1-2.47-4.23-5.03-8.41-7.54-12.61-.23-.38-.38-.8-.73-1.55,2.63,0,5.01.13,7.38-.02,10.76-.67,20.54-4.38,29.35-10.38,5.34-3.63,10.42-7.73,15.23-12.04,6.35-5.69,12.32-11.8,18.46-17.73,8.69-8.38,19.28-11.88,31.14-12.04.51,0,1.02,0,1.53.06.91.09,1.82.2,2.83.32Z"/>
        <path class="cls-1" d="M111.64,42.84c3.71-1.67,18.11-3.88,23.23-3.58v66.61c-8.24-20.81-16.23-41.74-23.23-63.03Z"/>
        <path class="cls-1" d="M126.18,113.47c-20.21-12.5-43.41-27.69-63.8-40.3,5.08-5.74,10.6-10.62,16.75-15.07,14.7,17.57,32.36,37.82,47.04,55.37Z"/>
        <path class="cls-1" d="M47.01,96.17c1.71-4.43,8.75-15.53,11.37-18.02,19.9,12.31,44.32,26.58,64.23,38.89-23.66-6.29-51.84-14.55-75.6-20.87Z"/>
        <path class="cls-1" d="M84.53,54.53c6.68-4.21,13.56-7.46,20.71-9.89,7.44,20.38,18.11,45.33,25.68,66.06-14.51-17.33-32-39-46.38-56.17Z"/>
        <path class="cls-1" d="M36.73,148.74c-.63-5.24-.05-18.85.9-22.08.45,0,.95,0,1.45,0,31.87,0,63.74,0,95.6,0,1.03,0,2.46,1.26,1.93,3.29-35.07-3.47-68.07,4.17-99.88,18.79Z"/>
        <path class="cls-1" d="M38.36,120.37c1.43-4.8,2.79-9.38,4.18-13.94.34-1.12.88-2.18,1.22-3.29.31-1.02.83-1.17,1.82-.89,7.39,2.04,14.79,4.05,22.19,6.03,14.56,3.88,29.6,7.39,44.17,11.26.43.12,7.04,1.39,7.47,1.64-24.64,0-55.93-.8-81.05-.8Z"/>
        <path class="cls-1" d="M19.07,159.85c9.93-.69,18.28-5.42,27.07-8.82,4.41-1.71,8.8-3.5,13.2-5.24.46-.18.94-.31,1.47-.48.95,4.59,1.18,9.03-.13,13.45-1.36,4.58-4.45,7.47-8.93,8.89-6.87,2.17-13.9,2.65-21.01,1.68-3.02-.41-6.01-1.05-9-1.65-.46-.09-1.14-.49-1.23-.86-.54-2.25-.95-4.54-1.42-6.95Z"/>
        <path class="cls-1" d="M136.57,200.13v18.86c-1.24-.12-2.43-.27-3.63-.36-12.77-.98-23.61,3.45-33.06,11.79-6.01,5.31-12.55,9.73-20.08,12.67-2.37.92-4.29.87-6.12-1.05.14-.11.3-.28.5-.36,12.57-5.39,23.02-13.67,32.26-23.62,2.99-3.22,5.86-6.57,9.09-9.52,5.68-5.19,12.5-7.97,20.21-8.46.24-.02.49.03.83.06Z"/>
        <path class="cls-1" d="M136.69,260.35c-13.99-.09-27.39-2.46-40.62-7.23.48-.29.79-.5,1.11-.68,4.19-2.31,8.5-4.43,12.55-6.97,8.71-5.45,17.87-5.29,26.11.77.41.3.8.95.81,1.44.06,4.14.04,8.27.04,12.67Z"/>
        <path class="cls-1" d="M62.18,39.77c-6.51,6.11-12.97,12.17-19.55,18.34-3.57-3.89-6.92-8.27-7.46-14.12-.67-7.25,4.83-12.23,12.02-11.04,5.72.95,10.61,3.62,14.99,6.82Z"/>
        <path class="cls-1" d="M84.6,248.03c1.96-1,3.87-1.93,5.74-2.95,5.28-2.87,9.93-6.61,14.45-10.52,7.46-6.45,16-10.07,25.99-9.74,1.62.05,3.23.41,4.86.55.76.07,1.06.34,1.06,1.13-.03,4.14-.01,8.27-.01,12.61-.51-.22-.91-.37-1.29-.57-9.74-4.94-19.27-4.53-28.49,1.27-5.54,3.49-11.2,6.67-17.38,8.9-1.81.66-3.32.66-4.92-.69Z"/>
        <path class="cls-1" d="M94.04,22.32c-7.73,3.83-15.47,7.66-23.33,11.56-2.01-4.3-3.75-9.03-3.04-14.22.83-6.04,8.4-9.93,14.59-7.66,3.99,1.47,9.87,6.68,11.79,10.32Z"/>
        <path class="cls-1" d="M36.47,65.99c-4.23,7.18-8.41,14.29-12.7,21.58-3.41-1.95-6.74-4.44-8.9-8.23-1.38-2.43-1.6-5.03-.93-7.71,1.34-5.36,4.81-8.08,10.35-8.19,3.46-.07,8.36.97,12.18,2.54Z"/>
        <path class="cls-1" d="M20.36,95.9c-2.09,7.76-4.16,15.42-6.24,23.16-3.44-.71-6.92-1.9-9.94-4.23-3.51-2.71-4.72-6.26-3.96-10.56.79-4.46,3.39-7.15,7.82-8.13,4.19-.93,8.37-.83,12.33-.23Z"/>
        <path class="cls-1" d="M106.48,18.4c.17-5.15,1-10.33,4.65-14.71,4.9-5.89,15.04-4.25,17.82,1.53,1.46,3.05,2.63,6.25,3.9,9.28-9.03,1.33-17.66,2.61-26.36,3.9Z"/>
        <path class="cls-1" d="M98.13,28.05c1.79,3.51,3.53,6.89,5.35,10.47-8.19,2.87-15.8,6.47-23.2,11.19-2.18-3.23-4.32-6.4-6.54-9.69,7.74-4.98,15.7-8.88,24.39-11.96Z"/>
        <path class="cls-1" d="M133.82,21.31c.34,3.86.67,7.55.98,11.03-8.48,1.27-16.75,2.5-25.28,3.78-.86-3.27-1.82-6.89-2.83-10.72,8.92-2.47,17.79-3.76,27.14-4.08Z"/>
        <path class="cls-1" d="M47.51,62.88c6.08-7.1,12.64-13.19,20.09-18.66,2.51,2.98,4.97,5.89,7.26,8.6-6.09,5.54-12.07,10.98-18.26,16.61-2.77-2-5.86-4.22-9.08-6.55Z"/>
        <path class="cls-1" d="M19.33,126.76h11.21c-.21,2.4-.55,4.71-.59,7.04-.09,5.3-.09,10.61,0,15.91.02,1.2-.35,1.76-1.46,2.02-2.91.66-5.81,1.35-8.94,2.09-1.15-9.16-1.29-17.98-.21-27.05Z"/>
        <path class="cls-1" d="M43.09,68.59c3.29,1.92,6.54,3.81,9.91,5.78-.34.51-.54.85-.77,1.15-4.16,5.52-7.8,11.36-10.9,17.54-.23.45-.99,1.06-1.33.97-3.41-.97-6.78-2.08-10.17-3.15,1.86-5.22,9.73-18.44,13.27-22.28Z"/>
        <path class="cls-1" d="M37.91,100.06c-1.55,5.07-3.08,9.96-4.53,14.87-.45,1.51-.67,3.09-1.09,4.6-.1.35-.62.83-.95.84-3.45.06-6.9.04-10.77.04.92-4.02,1.63-7.6,2.59-11.11.99-3.62,2.26-7.17,3.36-10.76.34-1.12.77-1.55,2.06-1.14,3.09.99,6.23,1.79,9.33,2.66Z"/>
        <path class="cls-1" d="M12.6,127.93v25.28c-6.35-.33-11.23-4.38-11.74-10.98-.58-7.55,4.09-13.28,11.74-14.3Z"/>
      </g>
    </g>
  </g>
</svg>